<?xml version="1.0" encoding="utf-8"?>
<!-- Generator: Adobe Illustrator 24.3.0, SVG Export Plug-In . SVG Version: 6.00 Build 0)  -->
<svg version="1.1" id="Layer_1" xmlns="http://www.w3.org/2000/svg" xmlns:xlink="http://www.w3.org/1999/xlink" x="0px" y="0px"
	 viewBox="0 0 1960 2761.3" enable-background="new 0 0 1960 2761.3" xml:space="preserve">
<rect width="1960" height="2761.3"/>
<g>
	<path fill="#00C7F9" d="M215.4,887.4h-3.4v-34.3h-47.5v151.2h25.7v2.9h-54.9v-2.9H161V853.1h-47.3v34.3h-3.4v-37.2h105.1V887.4z"/>
	<path fill="#00C7F9" d="M214.4,965.1l3.4-3.4v32.1l-3.4-3.4V965.1z M297.4,1004.3h22v2.9H297l-2.9-2.9v-53.2h-65.7l2.9-2.9H294
		v-29.8l3.4,3.4V1004.3z M231.3,1007.2l-2.9-2.9H294l-2.9,2.9H231.3z M229.8,901.7h47.3l3,2.9h-50.3V901.7z"/>
	<path fill="#00C7F9" d="M359.2,901.7l2.9,2.9v99.7h22v2.9h-47.5v-2.9h22v-99.7h-22v-2.9H359.2z M365.1,901.7h53.2l2.9,2.9h-59
		L365.1,901.7z M438.3,1004.3h22v2.9h-47.5v-2.9h22v-86l3.4,3.4V1004.3z"/>
	<path fill="#00C7F9" d="M498.8,901.7l2.9,2.9v99.7h22v2.9h-47.5v-2.9h22v-99.7h-22v-2.9H498.8z M504.7,901.7h53.2l2.9,2.9h-59
		L504.7,901.7z M578,1004.3h22v2.9h-47.5v-2.9h22v-86l3.4,3.4V1004.3z"/>
	<path fill="#00C7F9" d="M641.4,1004.3h22v2.9h-47.5v-2.9h22V853.1h-22v-2.9h25.5V1004.3z M644.4,901.7h53.2l2.9,2.9h-59
		L644.4,901.7z M717.6,1004.3h22v2.9h-47.5v-2.9h22v-86l3.4,3.4V1004.3z"/>
	<path fill="#00C7F9" d="M759.3,965.1l3.4-3.4v32.1l-3.4-3.4V965.1z M842.3,1004.3h22v2.9h-22.5l-2.9-2.9v-53.2h-65.7l2.9-2.9h62.7
		v-29.8l3.4,3.4V1004.3z M776.2,1007.2l-2.9-2.9h65.7l-2.9,2.9H776.2z M774.7,901.7H822l3,2.9h-50.3V901.7z M789.9,866.4v15.4h-3.4
		v-15.4H789.9z M821,866.4v15.4h-3.4v-15.4H821z"/>
	<path fill="#00C7F9" d="M904.5,990.6l-3.4-3.4v-82.6h-22v-2.9h25.5V990.6z M921.2,1007.2l-2.9-2.9h59l-2.9,2.9H921.2z
		 M980.7,1004.3h22v2.9h-22.5l-2.9-2.9v-99.7h-22v-2.9h25.5V1004.3z"/>
	<path fill="#00C7F9" d="M1026.1,918.8l3.4-3.4v31l-3.4-3.4V918.8z M1027,1007.2v-2.9h65.2l-2.9,2.9H1027z M1035.3,952.1h58.9
		l2.9,2.9h-58.8L1035.3,952.1z M1099.6,901.7v2.9h-59.3l2.9-2.9H1099.6z M1106.4,964.4v25.7l-3.4,3.4v-32.6L1106.4,964.4z"/>
	<path fill="#00C7F9" d="M1226.2,952.4h-82.6v38.2l-3.4-3.4v-65.4l3.4-3.4v31.1h79.1v-31.1l3.4,3.4V952.4z M1206.1,901.7l2.9,2.9
		h-51.7l2.9-2.9H1206.1z M1219.1,1007.2h-58.8l-2.9-2.9h61.7V1007.2z"/>
	<path fill="#00C7F9" d="M1275.7,904.6v99.7h26.9v2.9h-52.4v-2.9h22v-99.7h-22v-2.9h22.5L1275.7,904.6z M1324.2,901.7v2.9h-48.5
		l2.9-2.9H1324.2z"/>
	<path fill="#00C7F9" d="M1411.7,988.9V868.6l3.4-3.5v127.2L1411.7,988.9z M1429.8,850.2h68.6l2.9,2.9h-74.4L1429.8,850.2z
		 M1493.5,1007.2h-63.7l-2.9-2.9h69.5L1493.5,1007.2z M1511.9,928.1v60.8l-3.4,3.4v-61.2h-35.3v-2.9H1511.9z M1511.9,887.4h-3.4
		v-27.2l3.4,3.4V887.4z"/>
	<path fill="#00C7F9" d="M1543.7,965.1l3.4-3.4v32.1l-3.4-3.4V965.1z M1626.8,1004.3h22v2.9h-22.5l-2.9-2.9v-53.2h-65.7l2.9-2.9
		h62.7v-29.8l3.4,3.4V1004.3z M1560.6,1007.2l-2.9-2.9h65.7l-2.9,2.9H1560.6z M1559.2,901.7h47.3l3,2.9h-50.3V901.7z"/>
	<path fill="#00C7F9" d="M1724.1,904.6h-38.2v88.9l-3.4-3.4v-85.5h-18.9v-2.9h18.9v-24h3.4v24h38.2V904.6z M1724.1,1007.2h-24.5
		l-2.9-2.9h27.4V1007.2z"/>
	<path fill="#00C7F9" d="M1840.7,952.4h-82.6v38.2l-3.4-3.4v-65.4l3.4-3.4v31.1h79.1v-31.1l3.4,3.4V952.4z M1820.6,901.7l2.9,2.9
		h-51.7l2.9-2.9H1820.6z M1833.6,1007.2h-58.8l-2.9-2.9h61.7V1007.2z"/>
</g>
<g>
	<g>
		<path fill="#42C129" d="M233.2,1122.8h-3.4l9.2-34.3h-47.4L151,1239.6h25.7l-0.7,2.9H121l0.7-2.9h25.8l40.7-151.2h-47.4l-9.2,34.3
			h-3.4l10-37.2h105.1L233.2,1122.8z"/>
		<path fill="#42C129" d="M272.9,1137h53.2l2.1,2.9h-59.1l-26.8,99.7h22l-0.7,2.9h-47.5l0.7-2.9h22.1l40.6-151.2h-22l0.7-2.9h25.5
			l-14.6,54.3L272.9,1137z M338.2,1153.5l2.6,3.6l-22.2,82.6h22l-0.7,2.9h-47.5l0.7-2.9h22.1L338.2,1153.5z"/>
		<path fill="#42C129" d="M393.4,1151.2l-9,33.5h67.9l-3.7,2.9h-65l-10.2,38.2l-2.5-3.4l18.1-67.9L393.4,1151.2z M444.4,1242.6
			h-58.8l-2.2-2.9h61.7L444.4,1242.6z M459.9,1137l2.2,2.9h-54.2l3.8-2.9H459.9z M467.2,1173.1l5.2-19.3l2.5,3.3l-3.2,12.5
			L467.2,1173.1z"/>
		<path fill="#42C129" d="M683,1088.5h-74.6l-40.6,151.2h25.7l-0.7,2.9h-54.9l0.7-2.9h25.8l40.6-151.2h-25.7l0.7-2.9h100.9
			L683,1088.5z M664.9,1166.6h-49.1l46.6,73h25.8l-0.7,2.9h-54.9l0.7-2.9h25.8l-48.8-75.9h58.4L664.9,1166.6z M695.1,1105.1
			l-12.7,48l-4.5,3.5l14.7-55L695.1,1105.1z"/>
		<path fill="#42C129" d="M737.6,1151.2l-9,33.5h67.9l-3.7,2.9h-65l-10.2,38.2l-2.5-3.4l18.1-67.9L737.6,1151.2z M788.7,1242.6
			h-58.8l-2.2-2.9h61.7L788.7,1242.6z M804.1,1137l2.2,2.9h-54.2l3.8-2.9H804.1z M811.4,1173.1l5.2-19.3l2.5,3.3l-3.2,12.5
			L811.4,1173.1z"/>
		<path fill="#42C129" d="M887.1,1139.9h-25.6l11.9,102.7h-2.9l-12.1-102.7h-18.5l1-2.9h47.3L887.1,1139.9z M963.3,1139.9h-18.1
			l-67.4,102.7h-3.4l67.2-102.7h-26l1-2.9h47.8L963.3,1139.9z"/>
		<path fill="#42C129" d="M981.5,1154.6l4.3-3.4l-19.9,74.5l-2.5-3.5L981.5,1154.6z M978,1242.6l-2.1-2.9h54.4l-3.8,2.9H978z
			 M1052.5,1137l2.1,2.9h-54.4l3.8-2.9H1052.5z M1044.8,1228.3l20-74.6l2.5,3.4l-18.1,67.9L1044.8,1228.3z"/>
		<path fill="#42C129" d="M1099.9,1239.6h22l-0.7,2.9h-47.5l0.7-2.9h22.1l40.6-151.2h-22l0.7-2.9h25.5L1099.9,1239.6z"/>
		<path fill="#42C129" d="M1205.9,1139.9h-25.6l11.9,102.7h-2.9l-12.1-102.7h-18.5l1-2.9h47.3L1205.9,1139.9z M1282.1,1139.9H1264
			l-67.4,102.7h-3.4l67.2-102.7h-26l1-2.9h47.8L1282.1,1139.9z"/>
		<path fill="#42C129" d="M1304.5,1151.2l-9,33.5h67.9l-3.7,2.9h-65l-10.2,38.2l-2.5-3.4l18.1-67.9L1304.5,1151.2z M1355.6,1242.6
			h-58.8l-2.2-2.9h61.7L1355.6,1242.6z M1371,1137l2.2,2.9H1319l3.8-2.9H1371z M1378.3,1173.1l5.2-19.3l2.5,3.3l-3.2,12.5
			L1378.3,1173.1z"/>
		<path fill="#42C129" d="M1439.6,1139.9l-26.7,99.7h26.9l-0.7,2.9h-52.4l0.7-2.9h22.1l26.8-99.7h-22.2l1-2.9h22.5L1439.6,1139.9z
			 M1489.1,1137l-1,2.9h-48.5l3.9-2.9H1489.1z"/>
		<path fill="#42C129" d="M1482.2,1242.6l0.7-2.9h67.7l-3.7,2.9H1482.2z M1505.8,1151.7l4.1-3.2l-8.9,33.3l-2.5-3.3L1505.8,1151.7z
			 M1566.2,1190.4h-58.8l-2.2-2.9h58.8L1566.2,1190.4z M1583.2,1137l-1,2.9h-61.5l3.7-2.9H1583.2z M1565.5,1227.9l-4.4,3.5l9.4-35.1
			l2.6,3.4L1565.5,1227.9z"/>
		<path fill="#42C129" d="M1659.9,1206.1h3.4l-6.8,25.2l-2.5-3.4L1659.9,1206.1z M1664.8,1242.6l-2.2-2.9h57.1l-3.7,2.9H1664.8z
			 M1684.1,1122l6.6-24.3l4.3-3.4l-7.5,27.7H1684.1z M1699.3,1160.5l0.7-2.9h47.2l-1.9,1.5l1.1,1.5H1699.3z M1706.2,1085.5h47
			l2.1,2.9h-52.9L1706.2,1085.5z M1738.3,1224.9l-4.3,3.4l16.7-62l2.5,3.5L1738.3,1224.9z M1751.4,1154.3l14-52.1l2.5,3.4
			l-12.2,45.3L1751.4,1154.3z"/>
		<path fill="#42C129" d="M1766.4,1242.6l0.7-2.9h31.8l40.7-151.2h-32.6l0.7-2.9h36l-41.4,154.1h31.8l-0.7,2.9H1766.4z"/>
	</g>
</g>
<g>
	<g>
		<path fill="#FFA400" d="M114.9,1438.8h9.8v29.6l-9.8-9.6V1438.8z M134.3,1478l-8.6-8.6h55.6l-8.6,8.6H134.3z M193.3,1321v136.5
			l-9.8,9.8v-137.7h-52.2v-8.6H193.3z"/>
		<path fill="#FFA400" d="M232.5,1392.7l9.3-9.3v82.6l-9.3-9.3V1392.7z M300.6,1371.4l8.3,8.3h-63.5l8.3-8.3H300.6z M253.8,1478
			l-8.3-8.3H309l-8.3,8.3H253.8z M322.2,1392.7v63.9l-9.6,9.6v-83.1L322.2,1392.7z"/>
		<path fill="#FFA400" d="M384.4,1371.4h46.3l8.3,8.3h-60.8v89.9h20.6v8.3h-51.9v-8.3h22v-140.4h-22v-8.3h31.4v56.6L384.4,1371.4z
			 M452,1469.7h22v8.3h-51.9v-8.3h20.6v-86.2l9.3,9.3V1469.7z"/>
		<path fill="#FFA400" d="M524.5,1371.4h46.3l8.3,8.3h-60.8v89.9H539v8.3h-51.9v-8.3h22v-89.9h-22v-8.3h23.3l7.1,7.1L524.5,1371.4z
			 M592.2,1469.7h22v8.3h-51.9v-8.3h20.6v-86.2l9.3,9.3V1469.7z"/>
		<path fill="#FFA400" d="M697.5,1457.4v-115.9l9.8-9.8v135.5L697.5,1457.4z M718.1,1321h61l8.6,8.6h-78.2L718.1,1321z M779.1,1478
			h-61l-8.6-8.6h78.2L779.1,1478z M798,1360.2h-9.8V1330l9.8,9.6V1360.2z M798,1438.8v20.6l-9.8,9.6v-30.1H798z"/>
		<path fill="#FFA400" d="M823.2,1436.4l9.3-9.3v40.2l-9.3-9.3V1436.4z M909.2,1469.7h19.1v8.3H908l-7.1-7.1l-7.1,7.1h-50.5
			l-8.3-8.3h64.9v-45.1H835l8.3-8.3h56.6v-32.8l9.3,9.3V1469.7z M837.7,1371.4h50.2l8.3,8.3h-58.6V1371.4z"/>
		<path fill="#FFA400" d="M1019.7,1379.8h-46.3v89.9h26.9v8.3H942v-8.3h22v-89.9h-22v-8.3h23.3l7.1,7.1l7.1-7.1h40.2V1379.8z"/>
		<path fill="#FFA400" d="M1065.3,1379.8v89.9h67.4l-8.3,8.3h-52.9l-6.1-6.1v43.4h26.9v8.3h-58.3v-8.3h22v-135.5h-22v-8.3h23.3
			l7.1,7.1l7.1-7.1h52.9l8.3,8.3H1065.3z M1145.6,1392.7v63.9l-9.6,9.6v-83.1L1145.6,1392.7z"/>
		<path fill="#FFA400" d="M1269.1,1426.1H1190v39.9l-9.3-9.3v-63.9l9.3-9.3v34.3h69.6v-34.5l9.6,9.6V1426.1z M1247.8,1371.4l8.3,8.3
			h-62.5l8.3-8.3H1247.8z M1262,1478h-60l-8.3-8.3h68.4V1478z"/>
		<path fill="#FFA400" d="M1327.9,1371.4h46.3l8.3,8.3h-60.8v89.9h20.6v8.3h-51.9v-8.3h22.1v-89.9h-22.1v-8.3h23.3l7.1,7.1
			L1327.9,1371.4z M1395.5,1469.7h22.1v8.3h-51.9v-8.3h20.6v-86.2l9.3,9.3V1469.7z"/>
		<path fill="#FFA400" d="M1492.8,1379.8h-37.5v87.5l-9.3-9.3v-78.2h-18.9v-8.3h18.9v-24.7h9.3v24.7h37.5V1379.8z M1492.8,1478
			h-26.7l-8.3-8.3h35V1478z"/>
		<path fill="#FFA400" d="M1608.2,1426.1H1529v39.9l-9.3-9.3v-63.9l9.3-9.3v34.3h69.6v-34.5l9.6,9.6V1426.1z M1586.9,1371.4l8.3,8.3
			h-62.5l8.3-8.3H1586.9z M1601.1,1478h-60l-8.3-8.3h68.4V1478z"/>
		<path fill="#FFA400" d="M1707.2,1379.8h-46.3v89.9h27v8.3h-58.3v-8.3h22.1v-89.9h-22.1v-8.3h23.3l7.1,7.1l7.1-7.1h40.2V1379.8z"/>
		<path fill="#FFA400" d="M1732.4,1312.1h14v24l-9.1,23.5h-8.1l8.6-23.5h-5.4V1312.1z"/>
		<path fill="#FFA400" d="M1771.6,1391.8l9.3-9.3v37l-9.3-9.3V1391.8z M1772.8,1478v-8.3h69.1l-8.3,8.3H1772.8z M1781.4,1419.9h54.1
			l8.3,8.3h-54.1L1781.4,1419.9z M1846.8,1371.4v8.3h-63.5l8.3-8.3H1846.8z M1853.7,1438.1v19.8l-9.3,9.3v-38.5L1853.7,1438.1z"/>
	</g>
</g>
<g>
	<g>
		<path fill="#FF4200" d="M329.3,1564.8h-24.7l-37.7,139.9h25l-2.2,8.6h-59.3l2.4-8.6h24.7l38.2-142.3l-91.6,150.9h-16.9
			l-10.8-151.7l-38.5,143.1h25.2l-2.5,8.6h-59l2.5-8.6h24.7l37.7-139.9h-25.2l2.4-8.6h40.9l11.3,153.9l93.6-153.9h42.1L329.3,1564.8
			z"/>
		<path fill="#FF4200" d="M343,1625.6l11.8-9.3l-22.8,85l-6.9-9.3L343,1625.6z M340.8,1713.3l-6.1-8.3h65.9l-10.5,8.3H340.8z
			 M416.3,1606.7l6.1,8.3h-66.1l10.5-8.3H416.3z M431.9,1628.1l-17.9,66.4l-12,9.3l22.8-85.3L431.9,1628.1z"/>
		<path fill="#FF4200" d="M467.7,1625.6l11.8-9.3l-22.8,85l-6.9-9.3L467.7,1625.6z M465.5,1713.3l-6.1-8.3h65.9l-10.5,8.3H465.5z
			 M541,1606.7l6.1,8.3h-66.1l10.5-8.3H541z M556.6,1628.1l-17.9,66.4l-12,9.3l22.8-85.3L556.6,1628.1z"/>
		<path fill="#FF4200" d="M561.6,1758.9l2.2-8.3h73.5l-10.5,8.3H561.6z M591.2,1625.6l11.8-9.3l-22.8,85l-6.9-9.3L591.2,1625.6z
			 M685.8,1606.7l-36,134l-12,9.3l11.5-42.9l-7.8,6.1H589l-6.1-8.3H650l24-89.9h-69.6l10.5-8.3h55.4l5.1,7.1l9.1-7.1H685.8z"/>
		<path fill="#FF4200" d="M973.9,1564.8h-24.7l-37.7,139.9h25l-2.2,8.6h-59.3l2.5-8.6h24.7l38.2-142.3l-91.6,150.9h-16.9L821,1561.7
			l-38.5,143.1h25.2l-2.4,8.6h-59l2.5-8.6h24.7l37.7-139.9H786l2.4-8.6h40.9l11.3,153.9l93.6-153.9h42.1L973.9,1564.8z"/>
		<path fill="#FF4200" d="M986.4,1625.6l11.5-9.1l-22.5,84.8l-6.9-9.3L986.4,1625.6z M1080.9,1606.7l-26.5,98.2h22l-2.2,8.3h-23.3
			l-5.1-7.1l-9.1,7.1h-52.7l-6.1-8.3h67.1l24-89.9h-69.3l10.5-8.3h55.1l5.1,7.1l9.1-7.1H1080.9z"/>
		<path fill="#FF4200" d="M1103,1692l17.9-66.4l11.8-9.3l-22.8,85L1103,1692z M1166.4,1713.3h-47.8l-6.1-8.3h64.4L1166.4,1713.3z
			 M1144.6,1606.7h49l6.1,8.3h-65.7L1144.6,1606.7z M1193.9,1678.3l-4.7,17.1l-12,9.3l7.3-26.5H1193.9z M1200.7,1616.5l7.1,9.6
			l-4.2,15.9h-9.3L1200.7,1616.5z"/>
		<path fill="#FF4200" d="M1271.6,1606.7h46.3l6.1,8.3h-60.5l-24.3,89.9h20.6l-2.2,8.3h-52.2l2.2-8.3h22l37.7-140.4h-22l2.2-8.3
			h31.6l-15.2,56.3L1271.6,1606.7z M1312.7,1705h22.1l-2.2,8.3h-51.9l2.2-8.3h20.6l23-86.5l7.1,9.6L1312.7,1705z"/>
		<path fill="#FF4200" d="M1374.4,1606.7h31.4l-26.2,98.2h22l-2.2,8.3h-53.7l2.2-8.3h22l24-89.9H1372L1374.4,1606.7z M1401.6,1570.5
			h12.5l-4.4,16.2h-12.2L1401.6,1570.5z"/>
		<path fill="#FF4200" d="M1479.8,1606.7h46.3l6.1,8.3h-60.8l-24,89.9h20.6l-2.2,8.3h-52.2l2.2-8.3h22l24.3-89.9h-22.3l2.5-8.3h23.3
			l5.1,7.1L1479.8,1606.7z M1521,1705h22.1l-2.2,8.3h-51.9l2.2-8.3h20.6l23-86.5l7.1,9.6L1521,1705z"/>
		<path fill="#FF4200" d="M1597.9,1616l-10,37h68.6l-10.8,8.3h-60l-10.8,39.9l-6.9-9.3l17.9-66.4L1597.9,1616z M1643.7,1713.3h-60
			l-6.1-8.3h68.4L1643.7,1713.3z M1657.9,1606.7l6.1,8.3h-64.9l10.5-8.3H1657.9z M1673.6,1628.1l-3.7,14.5l-12,9.3l9.1-32.8
			L1673.6,1628.1z"/>
		<path fill="#FF4200" d="M1680.7,1705h71.3l11.3-40.9l6.9,9.3l-6.1,22.3l-22.3,17.6h-63.2L1680.7,1705z M1701,1624.6l11.8-9.3
			l-10.5,39.7l-6.9-9.6L1701,1624.6z M1762.8,1663.6h-54.1l-6.1-8.3h54.1L1762.8,1663.6z M1780.9,1606.7l-2.2,8.3H1713l10.3-8.3
			H1780.9z"/>
		<path fill="#FF4200" d="M1793.6,1713.3l5.9-21.6h12.5l-5.6,21.6H1793.6z M1805.9,1673.1l31.4-116.9h9.8l-31.4,116.9H1805.9z"/>
	</g>
</g>
<g>
	<g>
		<path fill="#FF5FC6" d="M245.5,1957.1H269v13.7h-63.2v-13.7h22.8l-10.8-34.8h-62.5l-10.3,34.8h23v13.7h-63v-13.7h24l40.7-129.6
			h-21.6v-13.7h52.4L245.5,1957.1z M159.5,1908.3h54.1l-27.2-89.4L159.5,1908.3z"/>
		<path fill="#FF5FC6" d="M378.3,1957.6h21.6v13.2h-24l-10-10l-10,10h-41.6l-22.3-22.5v-71.8h-21.3v-13H307v94.1h56.3v-81.1h-21.6
			v-13h36.5V1957.6z"/>
		<path fill="#FF5FC6" d="M481.2,1876.5h-36.7v81.1h36.7v13.2h-29.4l-22.5-22.5v-71.8h-18.4v-13h18.4v-26h15.2v26h36.7V1876.5z"/>
		<path fill="#FF5FC6" d="M575.5,1970.8h-47.8l-22.5-22.5v-62.5l22.5-22.3h47.8l22.5,22.3v62.5L575.5,1970.8z M582.9,1876.5h-62.5
			v81.1h62.5V1876.5z"/>
		<path fill="#FF5FC6" d="M621.8,1917.9v-13.2h122.5v13.2H621.8z"/>
		<path fill="#FF5FC6" d="M959.7,1827.5h-23.8v129.6h23.8v13.7h-62v-13.7h23.5v-132.3l-46.5,146h-25.7l-46.8-147v133.3h23.8v13.7
			h-62.2v-13.7h23.8v-129.6h-23.8v-13.7h50.2l47.8,150.4l47.8-150.4h50.2V1827.5z"/>
		<path fill="#FF5FC6" d="M1067.7,1957.6h16.7v13.2h-19.1l-10-10l-10,10h-44.3l-22-22v-19.6l22-22h51.9v-30.6h-60v-13h52.4
			l22.5,22.3V1957.6z M993.7,1958h59v-38.7h-59V1958z"/>
		<path fill="#FF5FC6" d="M1125.5,1958h53.9l22.3,22.3v13.7l-22.3,22.3h-55.9l-22-22.3v-11.5l20.8-20.8l-11-10.8v-6.1l10-10
			l-17.4-17.4v-31.8l22.3-22h52.4l10.5,10.5l10.5-10.5h13.7v13h-16.7v40.9l-22.3,22h-49V1958z M1186.8,1970.5h-70.6v33.1h70.6
			V1970.5z M1118.9,1876.2v50.5h63v-50.5H1118.9z"/>
		<path fill="#FF5FC6" d="M1316.1,1957.6h16.7v13.2h-19.1l-10-10l-10,10h-44.3l-22-22v-19.6l22-22h51.9v-30.6h-60v-13h52.4
			l22.5,22.3V1957.6z M1242.1,1958h59v-38.7h-59V1958z"/>
		<path fill="#FF5FC6" d="M1415.6,1933.8h14.5v37h-79.1v-24.3l67.9-70.1h-53.4v23.5h-14.5v-36.5h75.9v24.3l-67.9,69.8h56.6V1933.8z"
			/>
		<path fill="#FF5FC6" d="M1485.2,1957.6h21.6v13.2h-58.1v-13.2h21.6v-81.1h-21.6v-13h36.5V1957.6z M1485.4,1825.5v18.1h-19.8v-18.1
			H1485.4z"/>
		<path fill="#FF5FC6" d="M1626.5,1957.6h21.3v13.2h-55.1v-13.2h18.6v-81.1H1555v81.1h18.9v13.2h-55.4v-13.2h21.6v-81.1h-21.6v-13
			h24l10,10l10-10h41.6l22.3,22.3V1957.6z"/>
		<path fill="#FF5FC6" d="M1756.4,1921.1h-75.7v36.5h68.6v13.2h-61l-22.5-22.5v-62.5l22.5-22.3h45.8l22.3,22.3V1921.1z
			 M1741.5,1876.5h-60.8v32.3h60.8V1876.5z"/>
		<path fill="#FF5FC6" d="M1780.9,1970.8v-13.2h67.4v-34.8h-47l-21.8-21.8v-15.4l22-22h55.1v13h-62v33.8h46.8l21.8,21.8v16.7l-22,22
			H1780.9z"/>
	</g>
</g>
<g>
	<g>
		<path fill="#00C7F9" d="M114.2,2459.2v-18.6h22v-119.8h-22v-18.6h66.1v18.6h-21.8v119.8h21.8v18.6H114.2z"/>
		<path fill="#00C7F9" d="M315.6,2376.6l18.6,18.9v39.4l-24.3,24.3h-109v-18.1h22v-120.8h-22v-18.1h106.6l24.3,24.3v34.1
			L315.6,2376.6z M309.9,2320.3h-65.2v48.8h65.2V2320.3z M312.4,2441.1v-54.1h-67.6v54.1H312.4z"/>
		<path fill="#00C7F9" d="M559.6,2320.3h-21.8v120.8h21.8v18.1h-63.2v-18.1h21.3v-125.4l-42.4,143.6h-32.8l-42.4-144.1v125.9h21.3
			v18.1h-63.2v-18.1h22v-120.8h-22v-18.1h58.1l42.6,147.7l42.6-147.7h58.1V2320.3z"/>
		<path fill="#00C7F9" d="M836.9,2320.3h-21.8v120.8h21.8v18.1h-63.2v-18.1H795v-125.4l-42.4,143.6h-32.8l-42.4-144.1v125.9h21.3
			v18.1h-63.2v-18.1h22v-120.8h-22v-18.1h58.1l42.6,147.7l42.6-147.7h58.1V2320.3z"/>
		<path fill="#00C7F9" d="M946.7,2442.3h15.7v16.9H942l-10.8-10.8l-10.8,10.8h-43.4l-22.3-22.3v-20.1l22.3-22.3h49.7v-26.7h-58.3
			v-16.9h54.6l23.5,23.5V2442.3z M874.9,2443.3h51.9v-34.5h-51.9V2443.3z"/>
		<path fill="#00C7F9" d="M1072.4,2420.5v15.2l-23.8,23.5h-46.1l-23.5-23.5v-61.2l23.5-23.5h46.1l23.8,23.5v15.2h-20.6v-21.8h-52.4
			v74.5h52.4v-21.8H1072.4z"/>
		<path fill="#00C7F9" d="M1199.8,2442.3h19.4v16.9h-56.3v-16.9h16.4v-74.5h-49.5v74.5h16.4v16.9h-56.3v-16.9h19.4v-123.2h-19.4
			v-16.9h39.9v57.3l8.6-8.6h37.7l23.8,23.5V2442.3z"/>
		<path fill="#00C7F9" d="M1269.1,2442.3h19.4v16.9h-59.3v-16.9h19.4v-74.5h-19.4v-16.9h39.9V2442.3z M1268.9,2310.5v21.8h-24.3
			v-21.8H1268.9z"/>
		<path fill="#00C7F9" d="M1409.7,2442.3h19.4v16.9h-56.3v-16.9h16.4v-74.5h-49.5v74.5h16.4v16.9h-56.3v-16.9h19.4v-74.5h-19.4
			v-16.9h24l10.8,10.8l11-10.8h40.4l23.8,23.5V2442.3z"/>
		<path fill="#00C7F9" d="M1538.4,2410.4h-73v31.8h65.9v16.9H1469l-23.5-23.5v-61.2l23.5-23.5h45.8l23.5,23.5V2410.4z
			 M1518.5,2367.3h-53.2v29.4h53.2V2367.3z"/>
		<path fill="#00C7F9" d="M1638.1,2367.8h-42.4v74.5h23.8v16.9h-63.7v-16.9h19.4v-74.5h-19.4v-16.9h24l10.8,10.8l11-10.8h36.5
			V2367.8z"/>
		<path fill="#00C7F9" d="M1774,2367.8h-17.9l-44.6,137h-39v-16.9h24.7l10.3-28.7h-11.3l-29.6-91.4h-17.9v-16.9h52.9v16.9h-14.5
			l24.3,81.6l24.5-81.6h-14.2v-16.9h52.2V2367.8z"/>
		<path fill="#00C7F9" d="M1788.7,2341.3l24.5-12.5l-24.5-12l7.6-13.2l22.8,14.9l-1.7-27.2h15.2l-2,27.4l23.3-15.2l7.6,13.2
			l-24.7,12l24.7,12.5l-7.6,13.2l-23.3-15.4l2,27.4h-15.2l1.7-27.4l-22.8,15.4L1788.7,2341.3z"/>
	</g>
</g>
<g>
	<g>
		<path fill="#42C129" d="M249.9,2543.7l19.4,26.2l-28.9,107.6l-29.6,23.3h-111l5.1-18.6h22l31.8-119.8H137l4.9-18.6H249.9z
			 M216.8,2682.1l32.1-119.8h-67.9l-31.8,119.8H216.8z"/>
		<path fill="#42C129" d="M351.1,2652h-52.4l-8.6,31.8H356l-4.4,16.9h-61.2l-18.1-24.7l16.7-62l27.4-21.6h46.8l17.9,24.7l-3.9,14.5
			L351.1,2652z M363.6,2608.6h-53.4l-7.8,29.6h53.2L363.6,2608.6z"/>
		<path fill="#42C129" d="M494.9,2592.5l17.9,24.7l-16.7,61.7l-27.4,21.8h-45.1l-6.4-8.3l-9.8,37h23.8l-4.7,16.9h-63.7l4.7-16.9
			h19.4l32.1-120h-19.4l4.7-16.9h24l7.8,10.8l13.7-10.8H494.9z M474.6,2683.8l19.8-74.5h-54.9l-20.1,74.5H474.6z"/>
		<path fill="#42C129" d="M603.4,2652H551l-8.6,31.8h65.9l-4.4,16.9h-61.2l-18.1-24.7l16.7-62l27.4-21.6h46.8l17.9,24.7l-3.9,14.5
			L603.4,2652z M615.9,2608.6h-53.4l-7.8,29.6h53.2L615.9,2608.6z"/>
		<path fill="#42C129" d="M739.9,2662l-4.7,16.9l-27.4,21.8h-47l-18.1-24.7l16.7-62l27.4-21.6h47l18.1,24.7l-3.7,14h-20.6l5.6-21.8
			h-52.4l-19.8,74.5h52.4l5.9-21.8H739.9z"/>
		<path fill="#42C129" d="M861.2,2683.8h19.6l-4.7,16.9h-56.3l4.7-16.9h16.2l20.1-74.5h-49.5l-19.8,74.5h16.4l-4.7,16.9h-56.3
			l4.7-16.9H771l32.8-123.2h-19.4l4.4-16.9h39.9l-15.4,57.3l11-8.6h36.7l17.9,24.7L861.2,2683.8z"/>
		<path fill="#42C129" d="M978.3,2652h-52.4l-8.6,31.8h65.9l-4.4,16.9h-61.2l-18.1-24.7l16.7-62l27.4-21.6h46.8l17.9,24.7l-3.9,14.5
			L978.3,2652z M990.8,2608.6h-53.4l-7.8,29.6h53.2L990.8,2608.6z"/>
		<path fill="#42C129" d="M1120.4,2597.4l14.2-11l40.4,55.9l-15.7,58.8l-30.6,24.3h-45.1L1065,2700l4.9-17.4h19.6l-7.1,25.7h56.1
			l16.9-63.5L1120.4,2597.4z M1174.3,2543.7l18.6,25.2l-4.7,17.4h-19.4l6.6-25.7h-51.9l-17.2,63.5l35.3,48l-14,10.5l-40.9-55.6
			l15.9-59l30.6-24.3H1174.3z"/>
		<path fill="#42C129" d="M1476.9,2561.8H1455l-32.3,120.8h22.1l-4.9,18.1h-63.2l4.9-18.1h21.3l33.8-126.2l-81.6,144.3H1323
			l-3.9-145l-34.1,126.9h21.3l-4.9,18.1h-63.2l5.1-18.1h21.8l32.3-120.8h-22.1l4.9-18.1h57.1l3.2,148.2l82.6-148.2h58.8
			L1476.9,2561.8z"/>
		<path fill="#42C129" d="M1538.6,2700.7h-49.5L1471,2676l16.7-62l27.4-21.6h49.5l18.1,24.7l-16.7,61.7L1538.6,2700.7z
			 M1564.3,2609.4h-55.1l-19.8,74.5h54.9L1564.3,2609.4z"/>
		<path fill="#42C129" d="M1688,2683.8h19.4l-4.4,16.9h-24.3l-7.8-10.8l-13.7,10.8h-44.8l-18.1-24.7l16.7-62l27.4-21.6h45.1l6.4,8.8
			l10.8-40.7h-19.4l4.4-16.9h39.9L1688,2683.8z M1667.5,2683.8l20.1-74.5h-55.1l-19.8,74.5H1667.5z"/>
		<path fill="#42C129" d="M1807.8,2652h-52.4l-8.6,31.8h65.9l-4.4,16.9h-61.2L1729,2676l16.7-62l27.4-21.6h46.8l17.9,24.7l-3.9,14.5
			L1807.8,2652z M1820.3,2608.6h-53.4l-7.8,29.6h53.2L1820.3,2608.6z"/>
	</g>
</g>
<g>
	<g>
		<path fill="#808080" d="M250.9,2101.8H235l7.1-27.2h-79.1l-34.5,129.1h79.4l14.5-54.6h-31.1l3.7-13.5h47l-16.7,61.5l-26,20.6
			h-67.4l-17.1-23.3l30.6-113.2l26-20.6h67.6l16.9,23.3L250.9,2101.8z"/>
		<path fill="#808080" d="M349.6,2123.3h-44.1l-21.8,81.1h26.2l-3.4,13.2h-62.7l3.7-13.2h21.3l21.8-81.1H269l3.7-13h23.8l7.3,10
			l12.7-10h36.5L349.6,2123.3z"/>
		<path fill="#808080" d="M415.8,2217.6H366l-16.7-22.8l17.4-64.4l25.5-20.1H442l16.7,22.5l-17.4,64.7L415.8,2217.6z M445.9,2123.3
			h-62.2l-21.8,81.1h62.5L445.9,2123.3z"/>
		<path fill="#808080" d="M604.4,2083.4l-9.1,33.3l-16.2,12.7l13.2,17.9l-13.7,50.2l-25.5,20.1h-41.4l3.7-13.2h46.3l18.1-67.1H538
			l3.7-13.2h37l13.5-50.2h-60.5l-45.6,169.3l-25.5,20.1h-19.4l3.4-13.2h24.5l34.1-126.7h-21.1l3.4-13h21.1l7.4-27.2l28.4-22.5h45.3
			L604.4,2083.4z"/>
		<path fill="#808080" d="M710.3,2110.3l16.7,22.5l-17.4,64.7l-25.5,20.1h-49.7l-16.7-22.8l32.6-121h-21.6l3.7-13.2h36.5l-15.7,58.3
			l10.5-8.6H710.3z M692.6,2204.4l21.8-81.1H652l-21.8,81.1H692.6z"/>
		<path fill="#808080" d="M831.8,2123.3h-44.1l-21.8,81.1h26.2l-3.4,13.2h-62.7l3.7-13.2h21.3l21.8-81.1h-21.6l3.7-13h23.8l7.3,10
			l12.7-10h36.5L831.8,2123.3z"/>
		<path fill="#808080" d="M909.4,2167.9h-55.6l-9.8,36.5h68.6l-3.7,13.2h-60.8l-16.7-22.8l17.4-64.4l25.5-20.1h47.8l16.7,22.5
			l-4.2,15.4L909.4,2167.9z M926.6,2123.1h-60.8l-8.8,32.6h60.8L926.6,2123.1z"/>
		<path fill="#808080" d="M963.1,2110.3h36.5l-25.2,94.1h21.3l-3.7,13.2h-57.8l3.7-13.2h21.1l21.8-81.1h-21.3L963.1,2110.3z
			 M988.8,2072.4h19.8l-5.1,18.1h-19.6L988.8,2072.4z"/>
		<path fill="#808080" d="M1097.6,2123.3h-36.8l-21.6,81.1h36.7l-3.7,13.2h-29.2l-16.7-22.8l19.1-71.5h-18.4l3.4-13h18.6l6.9-26
			h15.2l-6.9,26h36.7L1097.6,2123.3z"/>
		<path fill="#808080" d="M1183.6,2167.9H1128l-9.8,36.5h68.6l-3.7,13.2h-60.8l-16.7-22.8l17.4-64.4l25.5-20.1h47.8l16.7,22.5
			l-4.2,15.4L1183.6,2167.9z M1200.8,2123.1H1140l-8.8,32.6h60.8L1200.8,2123.1z"/>
		<path fill="#808080" d="M1320.1,2204.4h21.3l-3.7,13.2h-55.1l3.4-13.2h18.6l21.8-81.1h-56.3l-21.8,81.1h18.9l-3.4,13.2h-55.4
			l3.7-13.2h21.3l21.8-81.1h-21.6l3.7-13h23.8l7.4,10l12.7-10h41.4l16.7,22.5L1320.1,2204.4z"/>
		<path fill="#808080" d="M1456.8,2110.3l16.7,22.5l-17.4,64.7l-25.5,20.1h-49.7l-16.7-22.8l32.6-121h-21.6l3.7-13.2h36.5
			l-15.7,58.3l10.5-8.6H1456.8z M1439.1,2204.4l21.8-81.1h-62.5l-21.8,81.1H1439.1z"/>
		<path fill="#808080" d="M1601.1,2110.3l-25.2,94.1h21.1l-3.4,13.2h-23.8l-7.3-10l-13,10h-47l-16.7-22.8l17.4-64.4l25.7-20.1h49.7
			l7.3,10l12.7-10H1601.1z M1560.4,2204.4l22-81.1H1520l-21.8,81.1H1560.4z"/>
		<path fill="#808080" d="M1714,2180.6l-4.7,16.9l-25.5,20.1h-47.3l-16.7-22.8l17.4-64.4l25.5-20.1h47.3l16.7,22.5l-3.7,14.2h-15.2
			l6.1-23.8h-59.8l-21.8,81.1h60l6.4-23.8H1714z"/>
		<path fill="#808080" d="M1834.8,2204.4h21.3l-3.7,13.2h-55.1l3.4-13.2h18.6l21.8-81.1h-56.3l-21.8,81.1h18.9l-3.4,13.2h-55.4
			l3.7-13.2h21.1l35.3-130.6h-21.3l3.4-13.2h36.5l-15.4,57.8l10.3-8.1h40.7l16.7,22.5L1834.8,2204.4z"/>
	</g>
</g>
<g>
	<g>
		<path fill="#FFA400" d="M203.4,356.7v135l28.4,28.2v1.7h-2.1l-29.3-28.8V355.6l29.3-28.8h2.1v1.7L203.4,356.7z M261.1,328.5
			l-28.4,28.2v135l28.4,28.2v1.7h-2.1l-29.3-28.8V355.6l29.3-28.8h2.1V328.5z"/>
		<path fill="#FFA400" d="M308.1,387h40.1l7.2,7.2h-52.6V472h17.8v7.2h-44.9V472h19.1v-77.8h-19.1V387h20.1l6.1,6.1L308.1,387z
			 M366.6,472h19.1v7.2h-44.9V472h17.8v-74.6l8.1,8.1V472z"/>
		<path fill="#FFA400" d="M430.7,355.6v137.2l-29.3,28.8h-2.1v-1.7l28.4-28.2v-135l-28.4-28.2v-1.7h2.1L430.7,355.6z M430.7,326.8
			l29.3,28.8v137.2l-29.3,28.8h-2.1v-1.7l28.4-28.2v-135l-28.4-28.2v-1.7L430.7,326.8z"/>
	</g>
</g>
<g>
	<g>
		<g>
			<path fill="#42C129" d="M1518.3,356.7v135l28.4,28.2v1.7h-2.1l-29.3-28.8V355.6l29.3-28.8h2.1v1.7L1518.3,356.7z M1576,328.5
				l-28.4,28.2v135l28.4,28.2v1.7h-2.1l-29.3-28.8V355.6l29.3-28.8h2.1V328.5z"/>
			<path fill="#42C129" d="M1655.3,387.1l7.2,7.2H1610v84.9h-8.2v-92.2H1655.3z M1673.7,405.5v73.7h-8.2v-81.9L1673.7,405.5z"/>
			<path fill="#42C129" d="M1730.3,355.6v137.2l-29.3,28.8h-2.1v-1.7l28.4-28.2v-135l-28.4-28.2v-1.7h2.1L1730.3,355.6z
				 M1730.3,326.8l29.3,28.8v137.2l-29.3,28.8h-2.1v-1.7l28.4-28.2v-135l-28.4-28.2v-1.7L1730.3,326.8z"/>
		</g>
	</g>
</g>
<g>
	<path fill="#00A241" d="M1019.6,207h8.3V241h-98.2v-7.4H951V112.5h-21.2v-7.4h97.7V139h-8.3v-26.5h-59.8v56h60v7.4h-60v57.7h60.2
		V207z"/>
</g>
<g>
	<path fill="#FFA400" d="M1019.6,683.5h8.3v33.9h-98.2V710H951V589h-21.2v-7.4h97.7v33.9h-8.3V589h-59.8v56h60v7.4h-60V710h60.2
		V683.5z"/>
</g>
<g>
	<g>
		<path fill="#999999" d="M700.1,350.7v121.1h68.3l-7.4,7.4h-91v-7.4h21.6V350.7H670v-7.4h90.7l7.4,7.4H700.1z M778.6,361.1v100.3
			l-8.3,8.3V352.8L778.6,361.1z"/>
	</g>
</g>
<g>
	<path fill="#00C7F9" d="M884.5,412.8v-3h190.8v3H884.5z"/>
</g>
<g>
	<path fill="#527ABF" d="M749.6,307.4l-2.1-2.1l134.9-134.9l2.1,2.1L749.6,307.4z"/>
</g>
<g>
	<path fill="#527ABF" d="M1075.3,172.5l2.1-2.1l134.9,134.9l-2.1,2.1L1075.3,172.5z"/>
</g>
<g>
	<path fill="#527ABF" d="M1210.2,513.3l2.1,2.1l-134.9,134.9l-2.1-2.1L1210.2,513.3z"/>
</g>
<g>
	<path fill="#527ABF" d="M884.5,648.2l-2.1,2.1L747.5,515.4l2.1-2.1L884.5,648.2z"/>
</g>
<g>
	<path fill="#00C7F9" d="M978.4,316h3v190.8h-3V316z"/>
</g>
<g>
	<path fill="#FF7700" d="M1192.7,461.4V361.1l8.5-8.5v117.2L1192.7,461.4z M1210.5,343.3h57.5l7.4,7.4h-72.3L1210.5,343.3z
		 M1266.3,479.2h-55.8l-7.4-7.4h70.6L1266.3,479.2z M1284.3,409.5v51.9l-8.5,8.5v-53H1247v-7.4H1284.3z M1284.3,377.2h-8.5v-26.1
		l8.5,8.3V377.2z"/>
</g>
</svg>
